<?xml version="1.0" encoding="utf-8"?>
<!-- Generator: Adobe Illustrator 21.0.2, SVG Export Plug-In . SVG Version: 6.00 Build 0)  -->
<!DOCTYPE svg PUBLIC "-//W3C//DTD SVG 1.1//EN" "http://www.w3.org/Graphics/SVG/1.1/DTD/svg11.dtd">
<svg version="1.1" id="Layer_1" xmlns="http://www.w3.org/2000/svg" xmlns:xlink="http://www.w3.org/1999/xlink" x="0px" y="0px"
	 viewBox="0 0 1366 768" style="enable-background:new 0 0 1366 768;" xml:space="preserve">
<style type="text/css">
	.st0{display:none;}
	.st1{display:inline;opacity:0.1;fill:#97A6B4;}
	.st2{display:inline;opacity:0.2;fill:#97A6B4;}
	.st3{fill:#97A6B4;}
	.st4{fill:none;stroke:#97A6B4;stroke-width:12;stroke-miterlimit:10;}
	.st5{opacity:0.9;}
	.st6{fill:#0087FF;}
	.st7{fill:#06CE40;}
	.st8{fill:#EA3B5D;}
	.st9{font-family:'Arial-BoldMT';}
	.st10{font-size:72px;}
	.st11{opacity:0.15;fill:#FFFFFF;}
	.st12{opacity:5.000000e-02;}
</style>
<g class="st0">
	<ellipse class="st1" cx="679" cy="281" rx="99" ry="11"/>
	<ellipse class="st1" cx="894" cy="281" rx="99" ry="11"/>
	<ellipse class="st1" cx="1106" cy="281" rx="99" ry="11"/>
	<ellipse class="st2" cx="678" cy="299" rx="39" ry="6"/>
	<ellipse class="st2" cx="896" cy="301" rx="39" ry="6"/>
	<ellipse class="st2" cx="1066" cy="290" rx="25" ry="4"/>
	<ellipse class="st2" cx="1153" cy="290" rx="25" ry="4"/>
</g>
<g id="ZlOwF0.tif">
	
		<image style="overflow:visible;" width="870" height="270" id="Layer_0_4_" xlink:href="CE8F999657878C73.png"  transform="matrix(0.5 0 0 0.5 465.5 316.5)">
	</image>
</g>
<g>
	<g>
		<g>
			<path class="st3" d="M700.4,101.4c-0.8-0.8-2.3-1.4-3.4-1.4h-86c-1.1,0-2,0.9-2,2v177c0,1.1,0.9,2,2,2h135c1.1,0,2-0.9,2-2V151
				c0-1.1-0.6-2.6-1.4-3.4L700.4,101.4z M704,124c0-1.1,0.6-1.4,1.4-0.6l20.2,20.2c0.8,0.8,0.5,1.4-0.6,1.4h-19c-1.1,0-2-0.9-2-2
				V124z M736,267c0,1.1-0.9,2-2,2H623c-1.1,0-2-0.9-2-2V114c0-1.1,0.9-2,2-2h67c1.1,0,2,0.9,2,2v29c0,1.1,0,2.9,0,4v1
				c0,1.1,0,2.9,0,4v3c0,1.1,0.9,2,2,2h40c1.1,0,2,0.9,2,2V267z"/>
		</g>
		<g>
			<path class="st3" d="M677,124c0-1.1-0.9-2-2-2h-40c-1.1,0-2,0.9-2,2v8c0,1.1,0.9,2,2,2h40c1.1,0,2-0.9,2-2V124z"/>
		</g>
		<g>
			<path class="st3" d="M667,144c0-1.1-0.9-2-2-2h-30c-1.1,0-2,0.9-2,2v8c0,1.1,0.9,2,2,2h30c1.1,0,2-0.9,2-2V144z"/>
		</g>
		<g>
			<path class="st3" d="M680,179c0-1.1-0.9-2-2-2h-43c-1.1,0-2,0.9-2,2v8c0,1.1,0.9,2,2,2h43c1.1,0,2-0.9,2-2V179z"/>
		</g>
		<g>
			<path class="st3" d="M633,207c0,1.1,0.9,2,2,2h88c1.1,0,2-0.9,2-2v-8c0-1.1-0.9-2-2-2h-88c-1.1,0-2,0.9-2,2V207z"/>
		</g>
		<g>
			<path class="st3" d="M715,219c0-1.1-0.9-2-2-2h-78c-1.1,0-2,0.9-2,2v8c0,1.1,0.9,2,2,2h78c1.1,0,2-0.9,2-2V219z"/>
		</g>
		<g>
			<path class="st3" d="M633,247c0,1.1,0.9,2,2,2h88c1.1,0,2-0.9,2-2v-8c0-1.1-0.9-2-2-2h-88c-1.1,0-2,0.9-2,2V247z"/>
		</g>
	</g>
</g>
<g>
	<g>
		<path class="st3" d="M127,39l42,42v115H54V39H127 M132,27H42v181h139V76L132,27L132,27z"/>
	</g>
	<g>
		<line class="st4" x1="131" y1="37" x2="131" y2="77"/>
	</g>
	<line class="st4" x1="169" y1="78" x2="125" y2="78"/>
	<line class="st4" x1="66" y1="55" x2="110" y2="55"/>
	<line class="st4" x1="66" y1="75" x2="100" y2="75"/>
	<line class="st4" x1="66" y1="110" x2="113" y2="110"/>
	<line class="st4" x1="66" y1="130" x2="158" y2="130"/>
	<line class="st4" x1="66" y1="150" x2="148" y2="150"/>
	<line class="st4" x1="66" y1="170" x2="158" y2="170"/>
</g>
<g class="st5">
	<rect x="106.7" y="255" class="st6" width="50.7" height="152"/>
	<rect x="106.7" y="255" transform="matrix(-1.836970e-16 1 -1 -1.836970e-16 463 199)" class="st6" width="50.7" height="152"/>
</g>
<path class="st7" d="M759,206c0-3.3-2.7-6-6-6h-48c-3.3,0-6-2.7-6-6v-48c0-3.3-2.7-6-6-6h-28c-3.3,0-6,2.7-6,6v48c0,3.3-2.7,6-6,6
	h-48c-3.3,0-6,2.7-6,6v28c0,3.3,2.7,6,6,6h48c3.3,0,6,2.7,6,6v48c0,3.3,2.7,6,6,6h28c3.3,0,6-2.7,6-6v-48c0-3.3,2.7-6,6-6h48
	c3.3,0,6-2.7,6-6V206z"/>
<g>
	<g>
		<g>
			<path class="st3" d="M920.4,101.4c-0.8-0.8-2.3-1.4-3.4-1.4h-86c-1.1,0-2,0.9-2,2v177c0,1.1,0.9,2,2,2h135c1.1,0,2-0.9,2-2V151
				c0-1.1-0.6-2.6-1.4-3.4L920.4,101.4z M924,124c0-1.1,0.6-1.4,1.4-0.6l20.2,20.2c0.8,0.8,0.5,1.4-0.6,1.4h-19c-1.1,0-2-0.9-2-2
				V124z M956,267c0,1.1-0.9,2-2,2H843c-1.1,0-2-0.9-2-2V114c0-1.1,0.9-2,2-2h67c1.1,0,2,0.9,2,2v29c0,1.1,0,2.9,0,4v1
				c0,1.1,0,2.9,0,4v3c0,1.1,0.9,2,2,2h40c1.1,0,2,0.9,2,2V267z"/>
		</g>
		<g>
			<path class="st3" d="M897,124c0-1.1-0.9-2-2-2h-40c-1.1,0-2,0.9-2,2v8c0,1.1,0.9,2,2,2h40c1.1,0,2-0.9,2-2V124z"/>
		</g>
		<g>
			<path class="st3" d="M887,144c0-1.1-0.9-2-2-2h-30c-1.1,0-2,0.9-2,2v8c0,1.1,0.9,2,2,2h30c1.1,0,2-0.9,2-2V144z"/>
		</g>
		<g>
			<path class="st3" d="M900,179c0-1.1-0.9-2-2-2h-43c-1.1,0-2,0.9-2,2v8c0,1.1,0.9,2,2,2h43c1.1,0,2-0.9,2-2V179z"/>
		</g>
		<g>
			<path class="st3" d="M853,207c0,1.1,0.9,2,2,2h88c1.1,0,2-0.9,2-2v-8c0-1.1-0.9-2-2-2h-88c-1.1,0-2,0.9-2,2V207z"/>
		</g>
		<g>
			<path class="st3" d="M935,219c0-1.1-0.9-2-2-2h-78c-1.1,0-2,0.9-2,2v8c0,1.1,0.9,2,2,2h78c1.1,0,2-0.9,2-2V219z"/>
		</g>
		<g>
			<path class="st3" d="M853,247c0,1.1,0.9,2,2,2h88c1.1,0,2-0.9,2-2v-8c0-1.1-0.9-2-2-2h-88c-1.1,0-2,0.9-2,2V247z"/>
		</g>
	</g>
</g>
<g>
	<g>
		<g>
			<path class="st3" d="M1131.4,101.4c-0.8-0.8-2.3-1.4-3.4-1.4h-86c-1.1,0-2,0.9-2,2v177c0,1.1,0.9,2,2,2h135c1.1,0,2-0.9,2-2V151
				c0-1.1-0.6-2.6-1.4-3.4L1131.4,101.4z M1135,124c0-1.1,0.6-1.4,1.4-0.6l20.2,20.2c0.8,0.8,0.5,1.4-0.6,1.4h-19c-1.1,0-2-0.9-2-2
				V124z M1167,267c0,1.1-0.9,2-2,2h-111c-1.1,0-2-0.9-2-2V114c0-1.1,0.9-2,2-2h67c1.1,0,2,0.9,2,2v29c0,1.1,0,2.9,0,4v1
				c0,1.1,0,2.9,0,4v3c0,1.1,0.9,2,2,2h40c1.1,0,2,0.9,2,2V267z"/>
		</g>
		<g>
			<path class="st3" d="M1108,124c0-1.1-0.9-2-2-2h-40c-1.1,0-2,0.9-2,2v8c0,1.1,0.9,2,2,2h40c1.1,0,2-0.9,2-2V124z"/>
		</g>
		<g>
			<path class="st3" d="M1098,144c0-1.1-0.9-2-2-2h-30c-1.1,0-2,0.9-2,2v8c0,1.1,0.9,2,2,2h30c1.1,0,2-0.9,2-2V144z"/>
		</g>
		<g>
			<path class="st3" d="M1111,179c0-1.1-0.9-2-2-2h-43c-1.1,0-2,0.9-2,2v8c0,1.1,0.9,2,2,2h43c1.1,0,2-0.9,2-2V179z"/>
		</g>
		<g>
			<path class="st3" d="M1064,207c0,1.1,0.9,2,2,2h88c1.1,0,2-0.9,2-2v-8c0-1.1-0.9-2-2-2h-88c-1.1,0-2,0.9-2,2V207z"/>
		</g>
		<g>
			<path class="st3" d="M1146,219c0-1.1-0.9-2-2-2h-78c-1.1,0-2,0.9-2,2v8c0,1.1,0.9,2,2,2h78c1.1,0,2-0.9,2-2V219z"/>
		</g>
		<g>
			<path class="st3" d="M1064,247c0,1.1,0.9,2,2,2h88c1.1,0,2-0.9,2-2v-8c0-1.1-0.9-2-2-2h-88c-1.1,0-2,0.9-2,2V247z"/>
		</g>
	</g>
</g>
<path class="st8" d="M1176.5,181.8c2.3-2.3,2.3-6.2,0-8.5l-19.8-19.8c-2.3-2.3-6.2-2.3-8.5,0l-33.9,33.9c-2.3,2.3-6.2,2.3-8.5,0
	l-33.9-33.9c-2.3-2.3-6.2-2.3-8.5,0l-19.8,19.8c-2.3,2.3-2.3,6.2,0,8.5l33.9,33.9c2.3,2.3,2.3,6.2,0,8.5l-33.9,33.9
	c-2.3,2.3-2.3,6.2,0,8.5l19.8,19.8c2.3,2.3,6.2,2.3,8.5,0l33.9-33.9c2.3-2.3,6.2-2.3,8.5,0l33.9,33.9c2.3,2.3,6.2,2.3,8.5,0
	l19.8-19.8c2.3-2.3,2.3-6.2,0-8.5l-33.9-33.9c-2.3-2.3-2.3-6.2,0-8.5L1176.5,181.8z"/>
<text transform="matrix(1 0 0 1 302 176)" class="st9 st10">$</text>
<g>
	<g>
		<path class="st6" d="M917,295c0,3.3-2.7,6-6,6h-28c-3.3,0-6-2.7-6-6V167c0-3.3,2.7-6,6-6h28c3.3,0,6,2.7,6,6V295z"/>
	</g>
	<g>
		<path class="st6" d="M873.6,167.9c-2.3-2.3-2.3-6.2,0-8.5l19.8-19.8c2.3-2.3,6.2-2.3,8.5,0l56.5,56.5c2.3,2.3,2.3,6.2,0,8.5
			l-19.8,19.8c-2.3,2.3-6.2,2.3-8.5,0L873.6,167.9z"/>
	</g>
	<g>
		<path class="st6" d="M921.4,167.9c2.3-2.3,2.3-6.2,0-8.5l-19.8-19.8c-2.3-2.3-6.2-2.3-8.5,0l-56.5,56.5c-2.3,2.3-2.3,6.2,0,8.5
			l19.8,19.8c2.3,2.3,6.2,2.3,8.5,0L921.4,167.9z"/>
	</g>
</g>
<path class="st7" d="M387.5,569c0-3.3-2.7-6-6-6h-48c-3.3,0-6-2.7-6-6v-48c0-3.3-2.7-6-6-6h-28c-3.3,0-6,2.7-6,6v48c0,3.3-2.7,6-6,6
	h-48c-3.3,0-6,2.7-6,6v28c0,3.3,2.7,6,6,6h48c3.3,0,6,2.7,6,6v48c0,3.3,2.7,6,6,6h28c3.3,0,6-2.7,6-6v-48c0-3.3,2.7-6,6-6h48
	c3.3,0,6-2.7,6-6V569z"/>
<path class="st11" d="M293.5,513h28c3.3,0,6,2.7,6,6v-10c0-3.3-2.7-6-6-6h-28c-3.3,0-6,2.7-6,6v10C287.5,515.7,290.2,513,293.5,513z
	"/>
<path class="st11" d="M233.5,573h48c3.3,0,6-2.7,6-6v-10c0,3.3-2.7,6-6,6h-48c-3.3,0-6,2.7-6,6v10C227.5,575.7,230.2,573,233.5,573z
	"/>
<path class="st11" d="M381.5,563h-48c-3.3,0-6-2.7-6-6v10c0,3.3,2.7,6,6,6h48c3.3,0,6,2.7,6,6v-10C387.5,565.7,384.8,563,381.5,563z
	"/>
<path class="st12" d="M321.5,653h-28c-3.3,0-6-2.7-6-6v10c0,3.3,2.7,6,6,6h28c3.3,0,6-2.7,6-6v-10C327.5,650.3,324.8,653,321.5,653z
	"/>
</svg>
